
<svg xmlns="http://www.w3.org/2000/svg" version="1.1" xmlns:xlink="http://www.w3.org/1999/xlink" preserveAspectRatio="none" x="0px" y="0px" width="210px" height="700px" viewBox="0 0 210 700">
<defs>
<g id="Layer0_0_FILL">
<path fill="#FFFFFF" stroke="none" d="
M 48.8 29.95
Q 48.1 29.25 47.15 29.25
L 44.35 29.25 44.35 23.9
Q 44.35 20.5 41.65 17.75 38.8 14.85 34.9 14.85 30.95 14.85 28.1 17.75 25.4 20.5 25.4 23.9
L 25.4 29.25 22.8 29.25
Q 21.85 29.25 21.15 29.95 20.45 30.6 20.45 31.55
L 20.45 48.9
Q 20.45 49.85 21.15 50.5 21.85 51.2 22.8 51.2
L 47.15 51.2
Q 48.1 51.2 48.8 50.5 49.45 49.85 49.45 48.9
L 49.45 31.55
Q 49.45 30.6 48.8 29.95
M 40.9 23.9
L 40.9 29.25 28.9 29.25 28.9 23.9
Q 28.9 21.95 30.5 20.25 32.3 18.3 34.9 18.3 37.45 18.3 39.25 20.25 40.9 22 40.9 23.9 Z"/>
</g>

<g id="Layer0_1_FILL">
<path fill="#000000" fill-opacity="0.00392156862745098" stroke="none" d="
M 44.5 71.85
L 44.5 1.85 -25.5 1.85 -25.5 71.85 44.5 71.85 Z"/>
</g>

<g id="Layer0_2_FILL">
<path fill="#000000" fill-opacity="0.00392156862745098" stroke="none" d="
M 0 0
L 0 70 70 70 70 0 0 0 Z"/>
</g>

<g id="Layer0_3_FILL">
<path fill="#FFFFFF" stroke="none" d="
M 56.7 35.75
Q 57.05 35.1 56.7 34.3 52.95 27.55 47.2 23.85 41.55 20.15 35.2 20.15 28.9 20.15 23.15 23.95 17.45 27.7 13.6 34.3 12.95 35.1 13.6 35.75 17.4 42.5 23.1 46.25 28.75 49.95 35.2 49.95 41.5 49.95 47.2 46.15 52.85 42.4 56.7 35.75
M 40.2 40.1
Q 38.1 42.2 35.2 42.2 32.2 42.2 30.1 40.1 28.1 38.05 28.1 35.1 28.1 32.2 30.2 30.1 32.3 28 35.2 28 38.1 28 40.2 30.1 42.2 32.1 42.2 35.1 42.2 38.05 40.2 40.1 Z"/>
</g>

<g id="Layer0_4_FILL">
<path fill="#000000" fill-opacity="0.00392156862745098" stroke="none" d="
M 0 0
L 0 70 70 70 70 0 0 0 Z"/>
</g>

<g id="Layer0_5_FILL">
<path fill="#FFFFFF" stroke="none" d="
M 56.7 35.75
Q 57.05 35.1 56.7 34.3 52.95 27.55 47.2 23.85 41.55 20.15 35.2 20.15 28.9 20.15 23.15 23.95 17.45 27.7 13.6 34.3 12.95 35.1 13.6 35.75 17.4 42.5 23.1 46.25 28.75 49.95 35.2 49.95 41.5 49.95 47.2 46.15 52.85 42.4 56.7 35.75
M 40.2 40.1
Q 38.1 42.2 35.2 42.2 32.2 42.2 30.1 40.1 28.1 38.05 28.1 35.1 28.1 32.2 30.2 30.1 32.3 28 35.2 28 38.1 28 40.2 30.1 42.2 32.1 42.2 35.1 42.2 38.05 40.2 40.1 Z"/>
</g>

<g id="Layer0_6_FILL">
<path fill="#000000" fill-opacity="0.00392156862745098" stroke="none" d="
M 0 0
L 0 70 70 70 70 0 0 0 Z"/>
</g>

<g id="Layer0_7_FILL">
<path fill="#FFFFFF" stroke="none" d="
M 56.7 35.75
Q 57.05 35.1 56.7 34.3 52.95 27.55 47.2 23.85 41.55 20.15 35.2 20.15 28.9 20.15 23.15 23.95 17.45 27.7 13.6 34.3 12.95 35.1 13.6 35.75 17.4 42.5 23.1 46.25 28.75 49.95 35.2 49.95 41.5 49.95 47.2 46.15 52.85 42.4 56.7 35.75
M 40.2 40.1
Q 38.1 42.2 35.2 42.2 32.2 42.2 30.1 40.1 28.1 38.05 28.1 35.1 28.1 32.2 30.2 30.1 32.3 28 35.2 28 38.1 28 40.2 30.1 42.2 32.1 42.2 35.1 42.2 38.05 40.2 40.1 Z"/>
</g>

<g id="Layer0_8_FILL">
<path fill="#000000" fill-opacity="0.00392156862745098" stroke="none" d="
M 0 0
L 0 70 70 70 70 0 0 0 Z"/>
</g>

<g id="Layer0_9_FILL">
<path fill="#FFFFFF" stroke="none" d="
M 56.7 35.75
Q 57.05 35.1 56.7 34.3 52.95 27.55 47.2 23.85 41.55 20.15 35.2 20.15 28.9 20.15 23.15 23.95 17.45 27.7 13.6 34.3 12.95 35.1 13.6 35.75 17.4 42.5 23.1 46.25 28.75 49.95 35.2 49.95 41.5 49.95 47.2 46.15 52.85 42.4 56.7 35.75
M 40.2 40.1
Q 38.1 42.2 35.2 42.2 32.2 42.2 30.1 40.1 28.1 38.05 28.1 35.1 28.1 32.2 30.2 30.1 32.3 28 35.2 28 38.1 28 40.2 30.1 42.2 32.1 42.2 35.1 42.2 38.05 40.2 40.1 Z"/>
</g>

<g id="Layer0_10_FILL">
<path fill="#000000" fill-opacity="0.00392156862745098" stroke="none" d="
M 0 0
L 0 70 70 70 70 0 0 0 Z"/>
</g>

<g id="Layer0_11_FILL">
<path fill="#FFFFFF" stroke="none" d="
M 56.7 35.75
Q 57.05 35.1 56.7 34.3 52.95 27.55 47.2 23.85 41.55 20.15 35.2 20.15 28.9 20.15 23.15 23.95 17.45 27.7 13.6 34.3 12.95 35.1 13.6 35.75 17.4 42.5 23.1 46.25 28.75 49.95 35.2 49.95 41.5 49.95 47.2 46.15 52.85 42.4 56.7 35.75
M 40.2 40.1
Q 38.1 42.2 35.2 42.2 32.2 42.2 30.1 40.1 28.1 38.05 28.1 35.1 28.1 32.2 30.2 30.1 32.3 28 35.2 28 38.1 28 40.2 30.1 42.2 32.1 42.2 35.1 42.2 38.05 40.2 40.1 Z"/>
</g>

<g id="Layer0_12_FILL">
<path fill="#000000" fill-opacity="0.00392156862745098" stroke="none" d="
M 0 0
L 0 70 70 70 70 0 0 0 Z"/>
</g>

<g id="Layer0_13_FILL">
<path fill="#FFFFFF" stroke="none" d="
M 56.7 35.75
Q 57.05 35.1 56.7 34.3 52.95 27.55 47.2 23.85 41.55 20.15 35.2 20.15 28.9 20.15 23.15 23.95 17.45 27.7 13.6 34.3 12.95 35.1 13.6 35.75 17.4 42.5 23.1 46.25 28.75 49.95 35.2 49.95 41.5 49.95 47.2 46.15 52.85 42.4 56.7 35.75
M 40.2 40.1
Q 38.1 42.2 35.2 42.2 32.2 42.2 30.1 40.1 28.1 38.05 28.1 35.1 28.1 32.2 30.2 30.1 32.3 28 35.2 28 38.1 28 40.2 30.1 42.2 32.1 42.2 35.1 42.2 38.05 40.2 40.1 Z"/>
</g>

<g id="Layer0_14_FILL">
<path fill="#000000" fill-opacity="0.00392156862745098" stroke="none" d="
M 0 0
L 0 70 70 70 70 0 0 0 Z"/>
</g>

<g id="Layer0_15_FILL">
<path fill="#FFFFFF" stroke="none" d="
M 56.7 35.75
Q 57.05 35.1 56.7 34.3 52.95 27.55 47.2 23.85 41.55 20.15 35.2 20.15 28.9 20.15 23.15 23.95 17.45 27.7 13.6 34.3 12.95 35.1 13.6 35.75 17.4 42.5 23.1 46.25 28.75 49.95 35.2 49.95 41.5 49.95 47.2 46.15 52.85 42.4 56.7 35.75
M 40.2 40.1
Q 38.1 42.2 35.2 42.2 32.2 42.2 30.1 40.1 28.1 38.05 28.1 35.1 28.1 32.2 30.2 30.1 32.3 28 35.2 28 38.1 28 40.2 30.1 42.2 32.1 42.2 35.1 42.2 38.05 40.2 40.1 Z"/>
</g>

<g id="Layer0_16_FILL">
<path fill="#000000" fill-opacity="0.00392156862745098" stroke="none" d="
M 0 0
L 0 70 70 70 70 0 0 0 Z"/>
</g>

<g id="Layer0_17_FILL">
<path fill="#FFFFFF" stroke="none" d="
M 56.7 35.75
Q 57.05 35.1 56.7 34.3 52.95 27.55 47.2 23.85 41.55 20.15 35.2 20.15 28.9 20.15 23.15 23.95 17.45 27.7 13.6 34.3 12.95 35.1 13.6 35.75 17.4 42.5 23.1 46.25 28.75 49.95 35.2 49.95 41.5 49.95 47.2 46.15 52.85 42.4 56.7 35.75
M 40.2 40.1
Q 38.1 42.2 35.2 42.2 32.2 42.2 30.1 40.1 28.1 38.05 28.1 35.1 28.1 32.2 30.2 30.1 32.3 28 35.2 28 38.1 28 40.2 30.1 42.2 32.1 42.2 35.1 42.2 38.05 40.2 40.1 Z"/>
</g>

<g id="Layer0_18_FILL">
<path fill="#000000" fill-opacity="0.00392156862745098" stroke="none" d="
M 0 0
L 0 70 70 70 70 0 0 0 Z"/>
</g>

<g id="Layer0_19_FILL">
<path fill="#FFFFFF" stroke="none" d="
M 56.7 35.75
Q 57.05 35.1 56.7 34.3 52.95 27.55 47.2 23.85 41.55 20.15 35.2 20.15 28.9 20.15 23.15 23.95 17.45 27.7 13.6 34.3 12.95 35.1 13.6 35.75 17.4 42.5 23.1 46.25 28.75 49.95 35.2 49.95 41.5 49.95 47.2 46.15 52.85 42.4 56.7 35.75
M 40.2 40.1
Q 38.1 42.2 35.2 42.2 32.2 42.2 30.1 40.1 28.1 38.05 28.1 35.1 28.1 32.2 30.2 30.1 32.3 28 35.2 28 38.1 28 40.2 30.1 42.2 32.1 42.2 35.1 42.2 38.05 40.2 40.1 Z"/>
</g>

<g id="Layer0_20_FILL">
<path fill="#000000" fill-opacity="0.00392156862745098" stroke="none" d="
M 0 0
L 0 70 70 70 70 0 0 0 Z"/>
</g>

<g id="Layer0_21_FILL">
<path fill="#FFFFFF" stroke="none" d="
M 56.7 35.75
Q 57.05 35.1 56.7 34.3 52.95 27.55 47.2 23.85 41.55 20.15 35.2 20.15 28.9 20.15 23.15 23.95 17.45 27.7 13.6 34.3 12.95 35.1 13.6 35.75 17.4 42.5 23.1 46.25 28.75 49.95 35.2 49.95 41.5 49.95 47.2 46.15 52.85 42.4 56.7 35.75
M 40.2 40.1
Q 38.1 42.2 35.2 42.2 32.2 42.2 30.1 40.1 28.1 38.05 28.1 35.1 28.1 32.2 30.2 30.1 32.3 28 35.2 28 38.1 28 40.2 30.1 42.2 32.1 42.2 35.1 42.2 38.05 40.2 40.1 Z"/>
</g>

<g id="Layer0_22_FILL">
<path fill="#000000" fill-opacity="0.00392156862745098" stroke="none" d="
M 0 0
L 0 70 70 70 70 0 0 0 Z"/>
</g>

<g id="Layer0_23_FILL">
<path fill="#FFFFFF" stroke="none" d="
M 56.7 35.75
Q 57.05 35.1 56.7 34.3 52.95 27.55 47.2 23.85 41.55 20.15 35.2 20.15 28.9 20.15 23.15 23.95 17.45 27.7 13.6 34.3 12.95 35.1 13.6 35.75 17.4 42.5 23.1 46.25 28.75 49.95 35.2 49.95 41.5 49.95 47.2 46.15 52.85 42.4 56.7 35.75
M 40.2 40.1
Q 38.1 42.2 35.2 42.2 32.2 42.2 30.1 40.1 28.1 38.05 28.1 35.1 28.1 32.2 30.2 30.1 32.3 28 35.2 28 38.1 28 40.2 30.1 42.2 32.1 42.2 35.1 42.2 38.05 40.2 40.1 Z"/>
</g>

<g id="Layer0_24_FILL">
<path fill="#000000" fill-opacity="0.00392156862745098" stroke="none" d="
M 0 0
L 0 70 70 70 70 0 0 0 Z"/>
</g>

<g id="Layer0_25_FILL">
<path fill="#FFFFFF" stroke="none" d="
M 56.7 35.75
Q 57.05 35.1 56.7 34.3 52.95 27.55 47.2 23.85 41.55 20.15 35.2 20.15 28.9 20.15 23.15 23.95 17.45 27.7 13.6 34.3 12.95 35.1 13.6 35.75 17.4 42.5 23.1 46.25 28.75 49.95 35.2 49.95 41.5 49.95 47.2 46.15 52.85 42.4 56.7 35.75
M 40.2 40.1
Q 38.1 42.2 35.2 42.2 32.2 42.2 30.1 40.1 28.1 38.05 28.1 35.1 28.1 32.2 30.2 30.1 32.3 28 35.2 28 38.1 28 40.2 30.1 42.2 32.1 42.2 35.1 42.2 38.05 40.2 40.1 Z"/>
</g>

<g id="Layer0_26_FILL">
<path fill="#000000" fill-opacity="0.00392156862745098" stroke="none" d="
M 0 0
L 0 70 70 70 70 0 0 0 Z"/>
</g>

<g id="Layer0_27_FILL">
<path fill="#FFFFFF" stroke="none" d="
M 56.7 35.75
Q 57.05 35.1 56.7 34.3 52.95 27.55 47.2 23.85 41.55 20.15 35.2 20.15 28.9 20.15 23.15 23.95 17.45 27.7 13.6 34.3 12.95 35.1 13.6 35.75 17.4 42.5 23.1 46.25 28.75 49.95 35.2 49.95 41.5 49.95 47.2 46.15 52.85 42.4 56.7 35.75
M 40.2 40.1
Q 38.1 42.2 35.2 42.2 32.2 42.2 30.1 40.1 28.1 38.05 28.1 35.1 28.1 32.2 30.2 30.1 32.3 28 35.2 28 38.1 28 40.2 30.1 42.2 32.1 42.2 35.1 42.2 38.05 40.2 40.1 Z"/>
</g>

<g id="Layer0_28_FILL">
<path fill="#000000" fill-opacity="0.00392156862745098" stroke="none" d="
M 0 0
L 0 70 70 70 70 0 0 0 Z"/>
</g>

<g id="Layer0_29_FILL">
<path fill="#FFFFFF" stroke="none" d="
M 56.7 35.75
Q 57.05 35.1 56.7 34.3 52.95 27.55 47.2 23.85 41.55 20.15 35.2 20.15 28.9 20.15 23.15 23.95 17.45 27.7 13.6 34.3 12.95 35.1 13.6 35.75 17.4 42.5 23.1 46.25 28.75 49.95 35.2 49.95 41.5 49.95 47.2 46.15 52.85 42.4 56.7 35.75
M 40.2 40.1
Q 38.1 42.2 35.2 42.2 32.2 42.2 30.1 40.1 28.1 38.05 28.1 35.1 28.1 32.2 30.2 30.1 32.3 28 35.2 28 38.1 28 40.2 30.1 42.2 32.1 42.2 35.1 42.2 38.05 40.2 40.1 Z"/>
</g>

<g id="Layer0_30_FILL">
<path fill="#000000" fill-opacity="0.00392156862745098" stroke="none" d="
M 0 0
L 0 70 70 70 70 0 0 0 Z"/>
</g>

<g id="Layer0_31_FILL">
<path fill="#FFFFFF" stroke="none" d="
M 56.7 35.75
Q 57.05 35.1 56.7 34.3 52.95 27.55 47.2 23.85 41.55 20.15 35.2 20.15 28.9 20.15 23.15 23.95 17.45 27.7 13.6 34.3 12.95 35.1 13.6 35.75 17.4 42.5 23.1 46.25 28.75 49.95 35.2 49.95 41.5 49.95 47.2 46.15 52.85 42.4 56.7 35.75
M 40.2 40.1
Q 38.1 42.2 35.2 42.2 32.2 42.2 30.1 40.1 28.1 38.05 28.1 35.1 28.1 32.2 30.2 30.1 32.3 28 35.2 28 38.1 28 40.2 30.1 42.2 32.1 42.2 35.1 42.2 38.05 40.2 40.1 Z"/>
</g>

<g id="Layer0_32_FILL">
<path fill="#000000" fill-opacity="0.00392156862745098" stroke="none" d="
M 0 0
L 0 70 70 70 70 0 0 0 Z"/>
</g>

<g id="Layer0_33_FILL">
<path fill="#FFFFFF" stroke="none" d="
M 56.7 35.75
Q 57.05 35.1 56.7 34.3 52.95 27.55 47.2 23.85 41.55 20.15 35.2 20.15 28.9 20.15 23.15 23.95 17.45 27.7 13.6 34.3 12.95 35.1 13.6 35.75 17.4 42.5 23.1 46.25 28.75 49.95 35.2 49.95 41.5 49.95 47.2 46.15 52.85 42.4 56.7 35.75
M 40.2 40.1
Q 38.1 42.2 35.2 42.2 32.2 42.2 30.1 40.1 28.1 38.05 28.1 35.1 28.1 32.2 30.2 30.1 32.3 28 35.2 28 38.1 28 40.2 30.1 42.2 32.1 42.2 35.1 42.2 38.05 40.2 40.1 Z"/>
</g>

<g id="Layer0_34_FILL">
<path fill="#000000" fill-opacity="0.00392156862745098" stroke="none" d="
M 0 0
L 0 70 70 70 70 0 0 0 Z"/>
</g>

<g id="Layer0_35_FILL">
<path fill="#FFFFFF" stroke="none" d="
M 56.7 35.75
Q 57.05 35.1 56.7 34.3 52.95 27.55 47.2 23.85 41.55 20.15 35.2 20.15 28.9 20.15 23.15 23.95 17.45 27.7 13.6 34.3 12.95 35.1 13.6 35.75 17.4 42.5 23.1 46.25 28.75 49.95 35.2 49.95 41.5 49.95 47.2 46.15 52.85 42.4 56.7 35.75
M 40.2 40.1
Q 38.1 42.2 35.2 42.2 32.2 42.2 30.1 40.1 28.1 38.05 28.1 35.1 28.1 32.2 30.2 30.1 32.3 28 35.2 28 38.1 28 40.2 30.1 42.2 32.1 42.2 35.1 42.2 38.05 40.2 40.1 Z"/>
</g>

<g id="Layer0_36_FILL">
<path fill="#000000" fill-opacity="0.00392156862745098" stroke="none" d="
M 0 0
L 0 70 70 70 70 0 0 0 Z"/>
</g>

<g id="Layer0_37_FILL">
<path fill="#FFFFFF" stroke="none" d="
M 56.7 35.75
Q 57.05 35.1 56.7 34.3 52.95 27.55 47.2 23.85 41.55 20.15 35.2 20.15 28.9 20.15 23.15 23.95 17.45 27.7 13.6 34.3 12.95 35.1 13.6 35.75 17.4 42.5 23.1 46.25 28.75 49.95 35.2 49.95 41.5 49.95 47.2 46.15 52.85 42.4 56.7 35.75
M 40.2 40.1
Q 38.1 42.2 35.2 42.2 32.2 42.2 30.1 40.1 28.1 38.05 28.1 35.1 28.1 32.2 30.2 30.1 32.3 28 35.2 28 38.1 28 40.2 30.1 42.2 32.1 42.2 35.1 42.2 38.05 40.2 40.1 Z"/>
</g>

<g id="Layer0_38_FILL">
<path fill="#000000" fill-opacity="0.00392156862745098" stroke="none" d="
M 0 0
L 0 70 70 70 70 0 0 0 Z"/>
</g>

<g id="Layer0_39_FILL">
<path fill="#FFFFFF" stroke="none" d="
M 56.7 35.75
Q 57.05 35.1 56.7 34.3 52.95 27.55 47.2 23.85 41.55 20.15 35.2 20.15 28.9 20.15 23.15 23.95 17.45 27.7 13.6 34.3 12.95 35.1 13.6 35.75 17.4 42.5 23.1 46.25 28.75 49.95 35.2 49.95 41.5 49.95 47.2 46.15 52.85 42.4 56.7 35.75
M 40.2 40.1
Q 38.1 42.2 35.2 42.2 32.2 42.2 30.1 40.1 28.1 38.05 28.1 35.1 28.1 32.2 30.2 30.1 32.3 28 35.2 28 38.1 28 40.2 30.1 42.2 32.1 42.2 35.1 42.2 38.05 40.2 40.1 Z"/>
</g>

<g id="Layer0_40_FILL">
<path fill="#000000" fill-opacity="0.00392156862745098" stroke="none" d="
M 0 0
L 0 70 70 70 70 0 0 0 Z"/>
</g>

<g id="Layer0_41_FILL">
<path fill="#FFFFFF" stroke="none" d="
M 56.7 35.75
Q 57.05 35.1 56.7 34.3 52.95 27.55 47.2 23.85 41.55 20.15 35.2 20.15 28.9 20.15 23.15 23.95 17.45 27.7 13.6 34.3 12.95 35.1 13.6 35.75 17.4 42.5 23.1 46.25 28.75 49.95 35.2 49.95 41.5 49.95 47.2 46.15 52.85 42.4 56.7 35.75
M 40.2 40.1
Q 38.1 42.2 35.2 42.2 32.2 42.2 30.1 40.1 28.1 38.05 28.1 35.1 28.1 32.2 30.2 30.1 32.3 28 35.2 28 38.1 28 40.2 30.1 42.2 32.1 42.2 35.1 42.2 38.05 40.2 40.1 Z"/>
</g>

<g id="Layer0_42_FILL">
<path fill="#000000" fill-opacity="0.00392156862745098" stroke="none" d="
M 0 0
L 0 70 70 70 70 0 0 0 Z"/>
</g>

<g id="Layer0_43_FILL">
<path fill="#FFFFFF" stroke="none" d="
M 56.7 35.75
Q 57.05 35.1 56.7 34.3 52.95 27.55 47.2 23.85 41.55 20.15 35.2 20.15 28.9 20.15 23.15 23.95 17.45 27.7 13.6 34.3 12.95 35.1 13.6 35.75 17.4 42.5 23.1 46.25 28.75 49.95 35.2 49.95 41.5 49.95 47.2 46.15 52.85 42.4 56.7 35.75
M 40.2 40.1
Q 38.1 42.2 35.2 42.2 32.2 42.2 30.1 40.1 28.1 38.05 28.1 35.1 28.1 32.2 30.2 30.1 32.3 28 35.2 28 38.1 28 40.2 30.1 42.2 32.1 42.2 35.1 42.2 38.05 40.2 40.1 Z"/>
</g>

<g id="Layer0_44_FILL">
<path fill="#000000" fill-opacity="0.00392156862745098" stroke="none" d="
M 0 0
L 0 70 70 70 70 0 0 0 Z"/>
</g>

<g id="Layer0_45_FILL">
<path fill="#FFFFFF" stroke="none" d="
M 56.7 35.75
Q 57.05 35.1 56.7 34.3 52.95 27.55 47.2 23.85 41.55 20.15 35.2 20.15 28.9 20.15 23.15 23.95 17.45 27.7 13.6 34.3 12.95 35.1 13.6 35.75 17.4 42.5 23.1 46.25 28.75 49.95 35.2 49.95 41.5 49.95 47.2 46.15 52.85 42.4 56.7 35.75
M 40.2 40.1
Q 38.1 42.2 35.2 42.2 32.2 42.2 30.1 40.1 28.1 38.05 28.1 35.1 28.1 32.2 30.2 30.1 32.3 28 35.2 28 38.1 28 40.2 30.1 42.2 32.1 42.2 35.1 42.2 38.05 40.2 40.1 Z"/>
</g>

<g id="Layer0_46_FILL">
<path fill="#000000" fill-opacity="0.00392156862745098" stroke="none" d="
M 0 0
L 0 70 70 70 70 0 0 0 Z"/>
</g>

<g id="Layer0_47_FILL">
<path fill="#FFFFFF" stroke="none" d="
M 56.7 35.75
Q 57.05 35.1 56.7 34.3 52.95 27.55 47.2 23.85 41.55 20.15 35.2 20.15 28.9 20.15 23.15 23.95 17.45 27.7 13.6 34.3 12.95 35.1 13.6 35.75 17.4 42.5 23.1 46.25 28.75 49.95 35.2 49.95 41.5 49.95 47.2 46.15 52.85 42.4 56.7 35.75
M 40.2 40.1
Q 38.1 42.2 35.2 42.2 32.2 42.2 30.1 40.1 28.1 38.05 28.1 35.1 28.1 32.2 30.2 30.1 32.3 28 35.2 28 38.1 28 40.2 30.1 42.2 32.1 42.2 35.1 42.2 38.05 40.2 40.1 Z"/>
</g>

<g id="Layer0_48_FILL">
<path fill="#000000" fill-opacity="0.00392156862745098" stroke="none" d="
M 0 0
L 0 70 70 70 70 0 0 0 Z"/>
</g>

<g id="Layer0_49_FILL">
<path fill="#FFFFFF" stroke="none" d="
M 56.7 35.75
Q 57.05 35.1 56.7 34.3 52.95 27.55 47.2 23.85 41.55 20.15 35.2 20.15 28.9 20.15 23.15 23.95 17.45 27.7 13.6 34.3 12.95 35.1 13.6 35.75 17.4 42.5 23.1 46.25 28.75 49.95 35.2 49.95 41.5 49.95 47.2 46.15 52.85 42.4 56.7 35.75
M 40.2 40.1
Q 38.1 42.2 35.2 42.2 32.2 42.2 30.1 40.1 28.1 38.05 28.1 35.1 28.1 32.2 30.2 30.1 32.3 28 35.2 28 38.1 28 40.2 30.1 42.2 32.1 42.2 35.1 42.2 38.05 40.2 40.1 Z"/>
</g>

<g id="Layer0_50_FILL">
<path fill="#000000" fill-opacity="0.00392156862745098" stroke="none" d="
M 0 0
L 0 70 70 70 70 0 0 0 Z"/>
</g>

<g id="Layer0_51_FILL">
<path fill="#FFFFFF" stroke="none" d="
M 56.7 35.75
Q 57.05 35.1 56.7 34.3 52.95 27.55 47.2 23.85 41.55 20.15 35.2 20.15 28.9 20.15 23.15 23.95 17.45 27.7 13.6 34.3 12.95 35.1 13.6 35.75 17.4 42.5 23.1 46.25 28.75 49.95 35.2 49.95 41.5 49.95 47.2 46.15 52.85 42.4 56.7 35.75
M 40.2 40.1
Q 38.1 42.2 35.2 42.2 32.2 42.2 30.1 40.1 28.1 38.05 28.1 35.1 28.1 32.2 30.2 30.1 32.3 28 35.2 28 38.1 28 40.2 30.1 42.2 32.1 42.2 35.1 42.2 38.05 40.2 40.1 Z"/>
</g>

<g id="Layer0_52_FILL">
<path fill="#000000" fill-opacity="0.00392156862745098" stroke="none" d="
M 0 0
L 0 70 70 70 70 0 0 0 Z"/>
</g>

<g id="Layer0_53_FILL">
<path fill="#FFFFFF" stroke="none" d="
M 56.7 35.75
Q 57.05 35.1 56.7 34.3 52.95 27.55 47.2 23.85 41.55 20.15 35.2 20.15 28.9 20.15 23.15 23.95 17.45 27.7 13.6 34.3 12.95 35.1 13.6 35.75 17.4 42.5 23.1 46.25 28.75 49.95 35.2 49.95 41.5 49.95 47.2 46.15 52.85 42.4 56.7 35.75
M 40.2 40.1
Q 38.1 42.2 35.2 42.2 32.2 42.2 30.1 40.1 28.1 38.05 28.1 35.1 28.1 32.2 30.2 30.1 32.3 28 35.2 28 38.1 28 40.2 30.1 42.2 32.1 42.2 35.1 42.2 38.05 40.2 40.1 Z"/>
</g>

<g id="Layer0_54_FILL">
<path fill="#000000" fill-opacity="0.00392156862745098" stroke="none" d="
M 0 0
L 0 70 70 70 70 0 0 0 Z"/>
</g>

<g id="Layer0_55_FILL">
<path fill="#FFFFFF" stroke="none" d="
M 56.7 35.75
Q 57.05 35.1 56.7 34.3 52.95 27.55 47.2 23.85 41.55 20.15 35.2 20.15 28.9 20.15 23.15 23.95 17.45 27.7 13.6 34.3 12.95 35.1 13.6 35.75 17.4 42.5 23.1 46.25 28.75 49.95 35.2 49.95 41.5 49.95 47.2 46.15 52.85 42.4 56.7 35.75
M 40.2 40.1
Q 38.1 42.2 35.2 42.2 32.2 42.2 30.1 40.1 28.1 38.05 28.1 35.1 28.1 32.2 30.2 30.1 32.3 28 35.2 28 38.1 28 40.2 30.1 42.2 32.1 42.2 35.1 42.2 38.05 40.2 40.1 Z"/>
</g>
</defs>

<g transform="matrix( 1, 0, 0, 1, 0,0) ">
<use xlink:href="#Layer0_0_FILL"/>
</g>

<g transform="matrix( 1, 0, 0, 1, 25.5,-1.85) ">
<use xlink:href="#Layer0_1_FILL"/>
</g>

<g transform="matrix( 1, 0, 0, 1, 0,70) ">
<use xlink:href="#Layer0_2_FILL"/>
</g>

<g transform="matrix( 1, 0, 0, 1, 0,70) ">
<use xlink:href="#Layer0_3_FILL"/>
</g>

<g transform="matrix( 1, 0, 0, 1, 70,70) ">
<use xlink:href="#Layer0_4_FILL"/>
</g>

<g transform="matrix( 1, 0, 0, 1, 70,70) ">
<use xlink:href="#Layer0_5_FILL"/>
</g>

<g transform="matrix( 1, 0, 0, 1, 140,70) ">
<use xlink:href="#Layer0_6_FILL"/>
</g>

<g transform="matrix( 1, 0, 0, 1, 140,70) ">
<use xlink:href="#Layer0_7_FILL"/>
</g>

<g transform="matrix( 1, 0, 0, 1, 0,140) ">
<use xlink:href="#Layer0_8_FILL"/>
</g>

<g transform="matrix( 1, 0, 0, 1, 0,140) ">
<use xlink:href="#Layer0_9_FILL"/>
</g>

<g transform="matrix( 1, 0, 0, 1, 70,140) ">
<use xlink:href="#Layer0_10_FILL"/>
</g>

<g transform="matrix( 1, 0, 0, 1, 70,140) ">
<use xlink:href="#Layer0_11_FILL"/>
</g>

<g transform="matrix( 1, 0, 0, 1, 140,140) ">
<use xlink:href="#Layer0_12_FILL"/>
</g>

<g transform="matrix( 1, 0, 0, 1, 140,140) ">
<use xlink:href="#Layer0_13_FILL"/>
</g>

<g transform="matrix( 1, 0, 0, 1, 0,210) ">
<use xlink:href="#Layer0_14_FILL"/>
</g>

<g transform="matrix( 1, 0, 0, 1, 0,210) ">
<use xlink:href="#Layer0_15_FILL"/>
</g>

<g transform="matrix( 1, 0, 0, 1, 70,210) ">
<use xlink:href="#Layer0_16_FILL"/>
</g>

<g transform="matrix( 1, 0, 0, 1, 70,210) ">
<use xlink:href="#Layer0_17_FILL"/>
</g>

<g transform="matrix( 1, 0, 0, 1, 140,210) ">
<use xlink:href="#Layer0_18_FILL"/>
</g>

<g transform="matrix( 1, 0, 0, 1, 140,210) ">
<use xlink:href="#Layer0_19_FILL"/>
</g>

<g transform="matrix( 1, 0, 0, 1, 0,280) ">
<use xlink:href="#Layer0_20_FILL"/>
</g>

<g transform="matrix( 1, 0, 0, 1, 0,280) ">
<use xlink:href="#Layer0_21_FILL"/>
</g>

<g transform="matrix( 1, 0, 0, 1, 70,280) ">
<use xlink:href="#Layer0_22_FILL"/>
</g>

<g transform="matrix( 1, 0, 0, 1, 70,280) ">
<use xlink:href="#Layer0_23_FILL"/>
</g>

<g transform="matrix( 1, 0, 0, 1, 140,280) ">
<use xlink:href="#Layer0_24_FILL"/>
</g>

<g transform="matrix( 1, 0, 0, 1, 140,280) ">
<use xlink:href="#Layer0_25_FILL"/>
</g>

<g transform="matrix( 1, 0, 0, 1, 0,350) ">
<use xlink:href="#Layer0_26_FILL"/>
</g>

<g transform="matrix( 1, 0, 0, 1, 0,350) ">
<use xlink:href="#Layer0_27_FILL"/>
</g>

<g transform="matrix( 1, 0, 0, 1, 70,350) ">
<use xlink:href="#Layer0_28_FILL"/>
</g>

<g transform="matrix( 1, 0, 0, 1, 70,350) ">
<use xlink:href="#Layer0_29_FILL"/>
</g>

<g transform="matrix( 1, 0, 0, 1, 140,350) ">
<use xlink:href="#Layer0_30_FILL"/>
</g>

<g transform="matrix( 1, 0, 0, 1, 140,350) ">
<use xlink:href="#Layer0_31_FILL"/>
</g>

<g transform="matrix( 1, 0, 0, 1, 0,420) ">
<use xlink:href="#Layer0_32_FILL"/>
</g>

<g transform="matrix( 1, 0, 0, 1, 0,420) ">
<use xlink:href="#Layer0_33_FILL"/>
</g>

<g transform="matrix( 1, 0, 0, 1, 70,420) ">
<use xlink:href="#Layer0_34_FILL"/>
</g>

<g transform="matrix( 1, 0, 0, 1, 70,420) ">
<use xlink:href="#Layer0_35_FILL"/>
</g>

<g transform="matrix( 1, 0, 0, 1, 140,420) ">
<use xlink:href="#Layer0_36_FILL"/>
</g>

<g transform="matrix( 1, 0, 0, 1, 140,420) ">
<use xlink:href="#Layer0_37_FILL"/>
</g>

<g transform="matrix( 1, 0, 0, 1, 0,490) ">
<use xlink:href="#Layer0_38_FILL"/>
</g>

<g transform="matrix( 1, 0, 0, 1, 0,490) ">
<use xlink:href="#Layer0_39_FILL"/>
</g>

<g transform="matrix( 1, 0, 0, 1, 70,490) ">
<use xlink:href="#Layer0_40_FILL"/>
</g>

<g transform="matrix( 1, 0, 0, 1, 70,490) ">
<use xlink:href="#Layer0_41_FILL"/>
</g>

<g transform="matrix( 1, 0, 0, 1, 140,490) ">
<use xlink:href="#Layer0_42_FILL"/>
</g>

<g transform="matrix( 1, 0, 0, 1, 140,490) ">
<use xlink:href="#Layer0_43_FILL"/>
</g>

<g transform="matrix( 1, 0, 0, 1, 0,560) ">
<use xlink:href="#Layer0_44_FILL"/>
</g>

<g transform="matrix( 1, 0, 0, 1, 0,560) ">
<use xlink:href="#Layer0_45_FILL"/>
</g>

<g transform="matrix( 1, 0, 0, 1, 70,560) ">
<use xlink:href="#Layer0_46_FILL"/>
</g>

<g transform="matrix( 1, 0, 0, 1, 70,560) ">
<use xlink:href="#Layer0_47_FILL"/>
</g>

<g transform="matrix( 1, 0, 0, 1, 140,560) ">
<use xlink:href="#Layer0_48_FILL"/>
</g>

<g transform="matrix( 1, 0, 0, 1, 140,560) ">
<use xlink:href="#Layer0_49_FILL"/>
</g>

<g transform="matrix( 1, 0, 0, 1, 0,630) ">
<use xlink:href="#Layer0_50_FILL"/>
</g>

<g transform="matrix( 1, 0, 0, 1, 0,630) ">
<use xlink:href="#Layer0_51_FILL"/>
</g>

<g transform="matrix( 1, 0, 0, 1, 70,630) ">
<use xlink:href="#Layer0_52_FILL"/>
</g>

<g transform="matrix( 1, 0, 0, 1, 70,630) ">
<use xlink:href="#Layer0_53_FILL"/>
</g>

<g transform="matrix( 1, 0, 0, 1, 140,630) ">
<use xlink:href="#Layer0_54_FILL"/>
</g>

<g transform="matrix( 1, 0, 0, 1, 140,630) ">
<use xlink:href="#Layer0_55_FILL"/>
</g>
</svg>
